<?xml version="1.0" encoding="iso-8859-1"?>
<!-- Generator: Adobe Illustrator 19.0.0, SVG Export Plug-In . SVG Version: 6.00 Build 0)  -->
<svg version="1.1" id="Capa_1" xmlns="http://www.w3.org/2000/svg" xmlns:xlink="http://www.w3.org/1999/xlink" x="0px" y="0px"
	 viewBox="0 0 512 512" style="enable-background:new 0 0 512 512;" xml:space="preserve">
<g>
	<g>
		<g>
			<path d="M256,0C114.615,0,0,114.615,0,256s114.615,256,256,256s256-114.615,256-256C511.833,114.685,397.315,0.167,256,0z
				 M400.832,85.792l0.128-0.256c8.859,7.568,17.123,15.806,24.72,24.64c4.175,7.966,6.344,16.83,6.32,25.824
				c0,30.928-25.072,56-56,56c-30.928,0-56-25.072-56-56c0-30.928,25.072-56,56-56C384.615,79.976,393.117,81.959,400.832,85.792z
				 M310.944,39.104c12.985,3.262,25.646,7.702,37.824,13.264c-46.23,14.994-71.553,64.626-56.559,110.856
				c14.994,46.23,64.626,71.553,110.856,56.559c26.835-8.703,47.871-29.745,56.567-56.583c5.562,12.178,10.002,24.839,13.264,37.824
				c-22.539,66.891-95.037,102.845-161.928,80.306c-66.891-22.539-102.845-95.037-80.306-161.928
				C243.411,81.565,273.11,51.861,310.944,39.104z M304,416c61.136,0.014,119.172-26.911,158.64-73.6
				c-47.693,114.149-178.893,168.021-293.041,120.328C55.45,415.034,1.577,283.835,49.271,169.687
				c22.68-54.282,65.805-97.463,120.057-120.215c-25.212,21.372-44.959,48.453-57.6,78.992l29.568,12.224
				c18.798-45.331,55.711-80.724,101.792-97.6c-64.333,60.372-67.544,161.465-7.172,225.798s161.465,67.544,225.798,7.172
				c2.532-2.376,4.986-4.834,7.358-7.37c-33.57,91.221-134.733,137.957-225.954,104.387c-43.314-15.94-78.634-48.256-98.35-89.987
				l-28.944,13.68C150.38,369.411,223.557,415.777,304,416z"/>
			<path d="M97.2,230.304c1.219,11.5,3.398,22.878,6.512,34.016l30.816-8.656c-2.637-9.43-4.483-19.063-5.52-28.8L97.2,230.304z"/>
			<path d="M132.4,168.592l-31.184-7.12c-2.556,11.27-4.161,22.734-4.8,34.272l32,1.856
				C128.942,187.837,130.275,178.135,132.4,168.592z"/>
			<rect x="368" y="112" width="32" height="32"/>
		</g>
	</g>
</g>
<g>
</g>
<g>
</g>
<g>
</g>
<g>
</g>
<g>
</g>
<g>
</g>
<g>
</g>
<g>
</g>
<g>
</g>
<g>
</g>
<g>
</g>
<g>
</g>
<g>
</g>
<g>
</g>
<g>
</g>
</svg>
